<?xml version="1.0" standalone="no"?>
<!DOCTYPE svg PUBLIC "-//W3C//DTD SVG 20010904//EN"
 "http://www.w3.org/TR/2001/REC-SVG-20010904/DTD/svg10.dtd">
<svg version="1.0" xmlns="http://www.w3.org/2000/svg"
 width="333.000000pt" height="333.000000pt" viewBox="0 0 333.000000 333.000000"
 preserveAspectRatio="xMidYMid meet">
<metadata>
Created by potrace 1.14, written by Peter Selinger 2001-2017
</metadata>
<g transform="translate(0.000000,333.000000) scale(0.100000,-0.100000)"
fill="#000000" stroke="none">
<path d="M1320 3269 c-634 -82 -1149 -577 -1279 -1228 -32 -155 -33 -168 -36
-341 -4 -258 26 -434 112 -653 211 -535 644 -889 1218 -992 130 -24 422 -24
560 0 157 27 363 83 393 107 6 6 12 8 12 5 0 -9 195 89 256 128 30 19 57 35
60 35 2 0 10 5 17 10 7 6 53 40 102 76 50 37 94 70 98 74 5 4 -2 18 -16 31
-24 24 -265 250 -298 279 -9 8 -43 41 -77 74 l-60 58 -65 -55 c-105 -89 -221
-151 -360 -191 -123 -36 -138 -38 -302 -41 -132 -3 -161 -1 -243 20 -321 82
-586 343 -680 670 -30 104 -37 155 -20 156 7 0 527 1 1156 1 l1143 1 -2 165
c-2 91 -6 193 -11 226 -4 34 -10 78 -13 99 -23 183 -134 479 -236 633 -124
188 -303 363 -464 456 -179 104 -338 162 -530 193 -91 15 -338 17 -435 4z
m298 -573 c217 -18 417 -150 563 -370 72 -109 133 -262 151 -381 3 -19 -6 -20
-805 -20 -445 0 -811 3 -813 7 -6 9 20 110 48 193 95 278 317 497 564 556 57
14 168 26 204 23 14 -2 53 -5 88 -8z"/>
</g>
</svg>
