<?xml version="1.0" encoding="UTF-8" standalone="no"?>
<!-- Generator: Adobe Illustrator 24.1.1, SVG Export Plug-In . SVG Version: 6.00 Build 0)  -->

<svg
   version="1.1"
   x="0px"
   y="0px"
   viewBox="0 0 6013 4004"
   style="enable-background:new 0 0 6013 4004;"
   xml:space="preserve"
   id="svg18"
   sodipodi:docname="Symbiota_white_trans.svg"
   inkscape:version="1.2.1 (9c6d41e410, 2022-07-14)"
   xmlns:inkscape="http://www.inkscape.org/namespaces/inkscape"
   xmlns:sodipodi="http://sodipodi.sourceforge.net/DTD/sodipodi-0.dtd"
   xmlns="http://www.w3.org/2000/svg"
   xmlns:svg="http://www.w3.org/2000/svg"><defs
   id="defs22" /><sodipodi:namedview
   id="namedview20"
   pagecolor="#ffffff"
   bordercolor="#000000"
   borderopacity="0.25"
   inkscape:showpageshadow="2"
   inkscape:pageopacity="0.0"
   inkscape:pagecheckerboard="true"
   inkscape:deskcolor="#d1d1d1"
   showgrid="false"
   inkscape:zoom="0.20123067"
   inkscape:cx="2755.5442"
   inkscape:cy="2002.6769"
   inkscape:window-width="2560"
   inkscape:window-height="1387"
   inkscape:window-x="5113"
   inkscape:window-y="-7"
   inkscape:window-maximized="1"
   inkscape:current-layer="svg18" />
<style
   type="text/css"
   id="style2">
	.st0{enable-background:new    ;}
	.st1{fill:#FFFFFF;}
</style>


<g
   id="Capa_7_xA0_Imagen_1_">
	
		<g
   id="g128"><path
     style="fill:#bfd245"
     d="m 3992.8646,3399.5312 -0.4903,-0.4902 -11.4372,-0.9945 -11.4371,-0.9944 -10.5,-0.1106 -10.5,-0.1105 -12,-0.9122 -12,-0.9122 -10.5,-0.9837 -10.5,-0.9837 -11,-0.6497 -11,-0.6496 -1.5,-0.7596 -1.5,-0.7596 -12.5,-1.1082 -12.5,-1.1081 -5,-0.3648 -5,-0.3648 -13,-1.6838 -13,-1.6837 -9,-1.5697 -9,-1.5697 -8.5,-0.7586 -8.5,-0.7586 -2.7546,-1.1024 -2.7545,-1.1023 -8.2455,-0.6092 -8.2454,-0.6092 -5.0375,-1.38 -5.0375,-1.3799 -9.2886,-1.0523 -9.2887,-1.0522 -3.546,-1.4816 -3.5459,-1.4816 h -3.6896 -3.6895 l -7.4384,-1.9091 -7.4383,-1.9091 -5.5,-0.6591 -5.5,-0.659 -4.5,-1.3979 -4.5,-1.3979 -8,-1.018 -8,-1.018 -4,-1.4721 -4,-1.472 -3.2821,-0.044 -3.2821,-0.044 -3.5261,-1.4733 -3.526,-1.4732 -5.1919,-0.6782 -5.1918,-0.6782 -5.4066,-1.8486 -5.4065,-1.8485 h -2.8064 -2.8065 l -5.074,-2 -5.074,-2 h -2.959 -2.959 l -5.754,-1.9067 -5.754,-1.9068 -4.8167,-0.5832 -4.8167,-0.5833 -2.1558,-1.51 -2.1558,-1.51 -2.5275,0.015 -2.5275,0.014 -7,-2.0766 -7,-2.0765 -6.5,-1.8699 -6.5,-1.8698 -7.5,-2.1464 -7.5,-2.1464 -7.7151,-2.4217 -7.7151,-2.4217 h -2.0701 -2.0701 l -2.2148,-1.4039 -2.2148,-1.4039 -4.4167,-0.7122 -4.4166,-0.7121 -3.0834,-1.8802 -3.0833,-1.8802 h -2.7536 -2.7536 l -3.7316,-2 -3.7316,-2 h -2.2406 -2.2407 l -3.2741,-1.9963 -3.2742,-1.9962 h -2.2983 -2.2983 l -4.1395,-2 -4.1396,-2 h -2.5621 -2.5622 l -3.2742,-1.9962 -3.2741,-1.9963 h -2.2644 -2.2644 l -3.9229,-2 -3.9229,-2 h -1.6007 -1.6007 l -4.1396,-2 -4.1395,-2 h -1.3369 -1.3368 l -3.7006,-1.8867 -3.7006,-1.8867 -3.5109,-0.6586 -3.5108,-0.6586 v -0.855 -0.8549 l -4.9701,-1.1923 -4.9702,-1.1924 -3.7413,-1.9074 -3.7413,-1.9074 h -1.2922 -1.2921 l -3.7316,-2 -3.7316,-2 h -1.2684 -1.2684 l -3.7316,-2 -3.7316,-2 h -1.3197 -1.3196 l -4.1952,-1.8757 -4.1951,-1.8758 -7.5,-0.695 -7.5,-0.695 -4.1781,-2.4292 -4.178,-2.4293 h -1.4371 -1.4371 l -2.3848,-1.8697 -2.3849,-1.8697 -3.25,-0.7097 -3.25,-0.7098 v -0.76 -0.7601 l -2.5471,-1.1605 -2.547,-1.1605 h -1.8815 -1.8815 l -1.4507,-1.4506 -1.4506,-1.4507 -2.8708,-0.6952 -2.8708,-0.6952 -2.6544,-1.8541 -2.6543,-1.8542 h -1.9608 -1.9608 l -2.5426,-2 -2.5426,-2 h -1.4527 -1.4527 l -3.684,-2.5 -3.6839,-2.5 h -1.2613 -1.2613 l -3.3886,-2.5 -3.3886,-2.5 h -1.7223 -1.7224 l -0.3334,-0.8409 -0.3333,-0.8409 -12.7155,-6.1988 -12.7156,-6.1988 -0.5934,-0.9603 -0.5935,-0.9603 h -1.8643 -1.8642 l -2.9711,-2.5 -2.9711,-2.5 h -1.9507 -1.9506 l -1.81,-2 -1.81,-2 h -1.7101 -1.7102 l -2.5426,-2 -2.5426,-2 h -1.5533 -1.5533 l -1.7889,-1.9189 -1.789,-1.9188 -2.6764,-0.6711 -2.6764,-0.6711 -1.7286,-1.91 -1.7286,-1.9101 h -1.3855 -1.3855 l -2.7095,-1.8152 -2.7095,-1.8151 -3.2095,-2.1849 -3.2095,-2.1848 h -1.1961 -1.1961 l -3.2777,-2.5 -3.2777,-2.5 H 3167 h -1.1334 l -3.2777,-2.5 -3.2777,-2.5 h -1.0331 -1.0332 l -1.1916,-1.4357 -1.1915,-1.4357 -2.8272,-0.621 -2.8272,-0.621 -1.7587,-1.9433 -1.7587,-1.9433 h -1.69 -1.69 l -1.81,-2 -1.81,-2 h -1.345 -1.345 l -1.8285,-1.8285 -1.8284,-1.8284 -5.9216,-3.3716 -5.9215,-3.3715 -4.6194,-3.3 -4.6195,-3.3 h -1.0538 -1.0538 l -2.8806,-2.4238 -2.8806,-2.4239 -4.9294,-2.621 -4.9295,-2.621 -2.0167,-1.7554 -2.0167,-1.7553 -4.5,-2.8451 -4.5,-2.8451 -5.7011,-3.8547 -5.7012,-3.8547 h -0.8939 -0.8938 l -1.81,-2 -1.81,-2 h -0.9355 -0.9355 l -5.2673,-4.5 -5.2673,-4.5 h -0.6068 -0.6068 l -4.2854,-3.057 -4.2854,-3.0571 -3.25,-2.0417 -3.25,-2.0418 v -0.8338 -0.8338 l -2.1031,-0.6675 -2.1031,-0.6675 -3.3028,-2.2414 -3.3028,-2.2413 -4.295,-3.4085 -4.295,-3.4086 -5.1807,-3.5 -5.1807,-3.5 -9.5949,-7.75 -9.595,-7.75 -0.7734,-0.012 -0.7735,-0.012 -4.2935,-3.9876 -4.2934,-3.9875 h -0.5004 -0.5003 l -6.2062,-4.9747 -6.2062,-4.9747 -1.5336,-1.2753 -1.5337,-1.2753 -4.2848,-2.9334 -4.2847,-2.9334 -3.8297,-3.5666 -3.8297,-3.5666 -2.9276,-2.5 -2.9276,-2.5 -4.3701,-4 -4.3701,-4 -2.1874,-1.5 -2.1873,-1.5 -9.3669,-7.8394 -9.3668,-7.8395 -4.9314,-4.1605 -4.9315,-4.1606 -4.0685,-3.679 -4.0686,-3.679 -4.5866,-4.321 -4.5865,-4.321 -11.82,-11 -11.8199,-11 -7.5148,-7 -7.5147,-7 -14.5788,-14.9814 -14.5787,-14.9813 -14.3679,-14.5187 -14.368,-14.5186 -6.4419,-7.7182 -6.4418,-7.7183 -5.0064,-5.1942 -5.0063,-5.1942 -3.6839,-4.5875 -3.6838,-4.5876 -3.2413,-3.5 -3.2414,-3.5 -0.01,-1.25 -0.01,-1.25 -1.25,-0.011 -1.25,-0.011 -3.25,-3.3457 -3.25,-3.3457 v -1.1437 -1.1436 h -0.9018 -0.9018 l -1.8482,-2.8985 -1.8482,-2.8986 -3.7643,-4.3514 -3.7644,-4.3515 -7.9295,-10 -7.9294,-10 -1.5562,-1.75 -1.5562,-1.75 v -0.6448 -0.6447 l -2.0591,-2.1053 -2.0592,-2.1052 -3.1908,-4.1199 -3.1909,-4.1198 -1.5,-2.3221 -1.5,-2.3221 -2.0505,-2.154 -2.0506,-2.1541 -3.7093,-5.404 -3.7093,-5.404 -1.8994,-2.5 -1.8994,-2.5 -7.0703,-10 -7.0702,-10 -1.5205,-1.5839 -1.5205,-1.5839 v -0.9918 -0.9918 l -2.5,-2.3486 -2.5,-2.3486 v -0.9314 -0.9313 l -2.4919,-3.1443 -2.492,-3.1444 -2.008,-2.2143 -2.0081,-2.2142 v -1.3615 -1.3614 l -2.5,-2.3486 -2.5,-2.3486 v -1.2543 -1.2542 l -1.3703,-1.3704 -1.3704,-1.3703 -1.5637,-3.0239 -1.5637,-3.024 -1.566,-1.2996 -1.5659,-1.2996 v -1.7032 -1.7033 l -2.5,-2.3486 -2.5,-2.3486 v -1.3355 -1.3355 l -2,-1.7124 -2,-1.7125 v -1.1317 -1.1318 l -2.5,-2.6975 -2.5,-2.6975 v -1.0152 -1.0152 l -2.5,-3.2777 -2.5,-3.2777 v -0.6983 -0.6983 l -3.8399,-5.2073 -3.84,-5.2073 -1.774,-3.75 -1.774,-3.75 h -0.761 -0.7611 l -0.5527,-2.7637 -0.5528,-2.7636 -2.0722,-2.3894 -2.0723,-2.3893 v -0.8276 -0.8276 l -3.3695,-5.2694 -3.3696,-5.2694 -4.2157,-8 -4.2157,-8 -1.2491,-1 -1.2491,-1 -0.6672,-2.6801 -0.6671,-2.68 -1.2485,-1.3352 -1.2485,-1.3352 -1.9075,-3.7348 -1.9074,-3.7347 h -0.7973 -0.7972 l -0.6688,-3.75 -0.6689,-3.75 -1.7615,-2 -1.7615,-2 -0.7332,-2.5 -0.7333,-2.5 -1.2821,-1.5 -1.2821,-1.5 -1.5795,-3.5 -1.5795,-3.5 -0.8866,-1.5 -0.8865,-1.5 -3.3325,-7 -3.3324,-7 -1.8011,-2.3849 -1.8011,-2.3848 v -1.7303 -1.7303 l -2,-2.5426 -2,-2.5426 v -1.9372 -1.9373 l -2,-1.81 -2,-1.81 v -1.1755 -1.1755 l -2.4958,-4.9195 -2.4958,-4.9195 v -1.008 -1.0079 l -2.5,-4.6963 -2.5,-4.6962 v -1.9233 -1.9234 l -1.4488,-1.2024 -1.4489,-1.2025 -1.2096,-3.665 -1.2095,-3.6651 -2.3416,-4.4039 -2.3416,-4.4039 -0.022,-1.601 -0.022,-1.6011 -1.9555,-2.5 -1.9555,-2.5 -0.022,-2.1151 -0.022,-2.1152 -2,-2.5426 -2,-2.5426 -0.01,-1.3422 -0.01,-1.3423 -2.4596,-5 -2.4596,-5 -0.062,-2 -0.062,-2 -2.4596,-5 -2.4596,-5 -0.013,-1.5 -0.013,-1.5 -1.9179,-3.1454 -1.918,-3.1454 -0.6047,-3.8051 -0.6047,-3.805 -1.4157,-1.5643 -1.4157,-1.5643 -0.9562,-4.2555 -0.9561,-4.2555 -1.4412,-2.2297 -1.4411,-2.2298 -0.6841,-3.4924 -0.6841,-3.4924 -1.2206,-2.7576 -1.2206,-2.7576 h -0.7559 -0.7559 v -3.5398 -3.5399 l -2,-3.9203 -2,-3.9203 v -2.07 -2.07 l -2.5,-5.9397 -2.5,-5.9397 -0.034,-2.2802 -0.034,-2.2801 -1.9321,-4 -1.9321,-4 -0.04,-2.5 -0.04,-2.5 -1.5772,-3 -1.5771,-3 -1.8519,-7 -1.852,-7 -1.5208,-4 -1.5209,-4 -0.044,-2.2125 -0.044,-2.2125 -1.9004,-5.2875 -1.9004,-5.2875 -0.5444,-5.1816 -0.5444,-5.1816 -2.0552,-4.0286 -2.0552,-4.0285 v -3.457 -3.4569 l -2,-4.6658 -2,-4.6658 v -2.3862 -2.3862 l -2.5,-7.6585 -2.5,-7.6586 v -3.8598 -3.8599 l -2.5,-9.622 -2.5,-9.622 -0.013,-3.1405 -0.013,-3.1405 -1.9871,-6.3391 -1.9871,-6.3391 -0.036,-3.6609 -0.036,-3.6609 -1.5483,-6 -1.5483,-6 -0.8565,-4.5 -0.8565,-4.5 -0.072,-5 -0.071,-5 -1.5247,-5.5 -1.5246,-5.5 -0.9122,-12 -0.9122,-12 -1.5656,-6.5 -1.5657,-6.5 -0.9793,-16.3694 -0.9792,-16.3694 -1.0652,-3.9558 -1.0652,-3.9558 -0.788,-21.6782 -0.7879,-21.6781 -1.6533,-3.197 -1.6532,-3.197 0.1502,-3.7996 0.1502,-3.7997 0.6996,4.5 0.6996,4.5 0.051,-7 0.05,-7 -0.839,2.5 -0.839,2.5 0.2858,-79.5 0.2858,-79.5 1.6133,-33.5 1.6133,-33.5 1.0406,-39 1.0406,-39 1.011,-48.5 1.0109,-48.5 0.9739,-102.5 0.9739,-102.5 0.01,-132 0.01,-132 -1.0167,-167.5 -1.0167,-167.5 -0.7288,-103.5 -0.7287,-103.5 0.5207,-67 0.5206,-67 0.2294,64.25 0.2293,64.25 h 434.3087 434.3088 l 46.4412,-1.54382 46.4413,-1.54382 248,-0.28181 248,-0.28181 51.5,0.79237 51.5,0.79236 51,1.52184 51,1.52184 31.5,1.046 31.5,1.04599 29.5,1.4542 29.5,1.45419 13.5,1.06848 13.5,1.06849 17.5,1.49965 17.5,1.49966 27,2.91893 27,2.91892 8,0.9844 8,0.98439 7.5,1.02097 7.5,1.02098 20,2.95742 20,2.95742 22,4.01942 22,4.01943 18,3.51978 18,3.51979 11.5,2.53117 11.5,2.53117 10.5,2.44877 10.5,2.44877 24.5,6.04171 24.5,6.04171 13,3.38484 13,3.38484 13,3.67304 13,3.67304 14,4.02992 14,4.02991 4,1.33792 4,1.33791 10.5,3.16949 10.5,3.16949 17.5,5.53723 17.5,5.53722 3.5,1.32788 3.5,1.32788 19,6.54948 19,6.54947 2,0.94037 2,0.94038 5,1.61877 5,1.61877 14.5,5.51481 14.5,5.51481 9.2817,3.91678 9.2817,3.91679 h 0.9819 0.9818 l 1.7365,0.96651 1.7364,0.96651 8,3.16777 8,3.16776 6.143,2.86573 6.1429,2.86572 h 0.5774 0.5774 l 5.4656,2.5 5.4655,2.5 h 0.4506 0.4505 l 9.8636,4.55482 9.8635,4.55481 2,0.88378 2,0.88378 10.8708,5.0614 10.8708,5.06141 h 0.8991 0.899 l 3.9603,2.5 3.9603,2.5 h 0.6192 0.6192 l 28.6506,14.3492 28.6507,14.3492 13.5,7.29428 13.5,7.29427 4,2.19098 4,2.19098 12,6.82096 12,6.82095 6.5,3.68273 6.5,3.68273 18.3225,11.16186 18.3226,11.16186 h 0.8441 0.8441 l 0.3334,0.76807 0.3333,0.76808 5.5,3.4419 5.5,3.44191 17.5,11.51552 17.5,11.51552 1.7313,1.0245 1.7313,1.0245 9.2687,6.39505 9.2687,6.39505 6.5,4.52689 6.5,4.5269 11,8.00649 11,8.0065 16,12.01244 16,12.01244 10.5,8.53346 10.5,8.53345 0.3333,0.77567 0.3334,0.77566 h 1.3333 1.3333 l 0.3334,0.81637 0.3333,0.81636 6.6783,5.21858 6.6783,5.21858 0.3217,0.71506 0.3217,0.71505 3.817,2.852 3.817,2.85199 13.183,11.52041 13.183,11.5205 3.0055,2.6275 3.0056,2.6276 8.4329,7.5 8.433,7.5 7.5615,6.9709 7.5615,6.9709 30.522,30.5291 30.522,30.5291 10.572,11.5 10.5719,11.5 5.2742,6 5.2742,6 2.6968,3 2.6968,3 12.935,15.0492 12.9351,15.0492 3.216,3.9508 3.216,3.9508 14.284,18.1022 14.284,18.1021 11.7719,15.8979 11.7719,15.8978 8.1353,11.5 8.1352,11.5 8.1498,12 8.1497,12 8.3333,13 8.3334,13 0.6097,0.5 0.6098,0.5 2.4117,4.4239 2.4117,4.4238 9.8383,15.9138 9.8383,15.9139 v 0.3816 0.3816 l 4.8108,8.2807 4.8107,8.2807 5.0786,9 5.0787,9 1.941,4 1.941,4 6.9722,13 6.9721,13 7.5946,15.5 7.5947,15.5 2.9871,6.5 2.9871,6.5 3.1967,7 3.1966,7 1.5507,3.5 1.5506,3.5 1.9362,4 1.9361,4 2.408,6.3047 2.408,6.3047 1.4451,2.6953 1.445,2.6953 7.9567,20.5 7.9566,20.5 1.6861,4.5 1.6861,4.5 6.3559,18 6.3559,18 5.493,17.5 5.493,17.5 4.502,15.5 4.502,15.5 3.9724,15.5 3.9723,15.5 3.0814,13 3.0815,13 2.0687,10 2.0687,10 2.9609,15.3652 2.9608,15.3652 2.9668,18.6951 2.9668,18.6951 2.4855,19.4397 2.4856,19.4397 2.0044,22 2.0043,22 1.1035,18 1.1035,18 0.192,32.5 0.192,32.5 -1.2762,6 -1.2761,6 -0.949,18.5 -0.949,18.5 -1.4256,10 -1.4256,10 -0.6857,9 -0.6857,9 -1.9288,9.7319 -1.9288,9.732 -0.5352,7.768 -0.5351,7.7681 -1.471,5.7269 -1.471,5.7269 -0.9329,9.7731 -0.9328,9.7731 -1.4868,4.2085 -1.4867,4.2086 -1.0355,7.2914 -1.0354,7.2915 -2.0236,6.9968 -2.0235,6.9968 v 3.9366 3.9366 l -1.9426,5.5666 -1.9426,5.5666 -1.0699,7.9127 -1.07,7.9126 -0.9961,1.2002 -0.996,1.2001 -1.0358,5.8872 -1.0358,5.8872 -1.8743,5 -1.8743,5 -0.4781,4.1899 -0.4781,4.1899 -1.6111,3.2295 -1.6111,3.2296 -1.0313,6.4561 -1.0314,6.4561 -1.3577,2.6255 -1.3577,2.6255 -0.7183,5.7489 -0.7182,5.749 h -0.7248 -0.7247 l -1.2532,4.25 -1.2532,4.25 -1.9961,6 -1.9962,6 -0.7373,3.5 -0.7373,3.5 -1.6388,3.5 -1.6388,3.5 -1.09,5 -1.09,5 -1.3182,2.0218 -1.3181,2.0219 -0.7557,4.4729 -0.7557,4.473 -1.8708,3.4904 -1.8707,3.4904 v 2.0953 2.0953 l -2.4958,4.9195 -2.4958,4.9195 v 1.882 1.8819 l -1.8921,3.1181 -1.8922,3.118 -0.7234,3.4145 -0.7235,3.4144 -2.3844,4.4845 -2.3844,4.4845 v 1.6285 1.6286 l -1.402,2.0016 -1.4019,2.0016 -1.1556,4.2913 -1.1555,4.2912 -1.9388,3.1797 -1.9387,3.1796 v 2.3456 2.3457 l -2.0082,2.8202 -2.0081,2.8202 -0.6469,3.3341 -0.647,3.3342 -1.8449,2.3849 -1.8449,2.3848 v 1.479 1.479 l -1.9154,3.6361 -1.9155,3.6362 -3.1695,7 -3.1695,7 -2.415,5.0144 -2.4151,5.0143 v 1.6132 1.6132 l -1.3382,1.1106 -1.3381,1.1105 -1.2605,4.2619 -1.2605,4.2619 -1.29,1.5 -1.2901,1.5 -0.7056,3.3176 -0.7056,3.3175 -1.3573,0.5209 -1.3574,0.5209 -1.0524,3.1615 -1.0525,3.1616 -3.4894,6.5 -3.4893,6.5 -1.994,4 -1.9939,4 -0.9883,1.5 -0.9884,1.5 -1.5042,3.5 -1.5041,3.5 -0.8586,1.5 -0.8585,1.5 -1.6364,3 -1.6364,3 -2.0125,4 -2.0126,4 -0.8913,1.5 -0.8912,1.5 -1.6052,3.75 -1.6051,3.75 h -1.0162 -1.0162 v 1.845 1.845 l -1.9101,1.7286 -1.91,1.7286 -0.6641,2.6764 -0.6641,2.6764 -1.7964,2 -1.7965,2 -1.5934,3 -1.5933,3 -1.4926,3.1138 -1.4926,3.1139 -3.8594,5.8861 -3.8595,5.8862 -1.3053,3.25 -1.3053,3.25 h -0.8319 -0.8319 l -2.0219,4.25 -2.0219,4.25 -0.9527,1.5 -0.9528,1.5 -0.572,1.5 -0.572,1.5 -3.4783,4.5 -3.4782,4.5 -1.367,3 -1.367,3 -1.6549,1.3724 -1.6549,1.3725 v 1.3061 1.3061 l -1.3145,1.3215 -1.3146,1.3214 -4.1375,6.5 -4.1376,6.5 -1.5479,1.5839 -1.5479,1.5839 v 1.0894 1.0893 l -2.25,2.8347 -2.25,2.8346 -1,1.626 -1,1.6259 -3.75,5.4697 -3.75,5.4696 v 0.714 0.7139 l -4.6258,5.6787 -4.6259,5.6787 -0.5246,1.3671 -0.5246,1.3671 -1.9445,2.1367 -1.9446,2.1368 -6.155,8.3385 -6.155,8.3385 -1.2159,2.1596 -1.2159,2.1596 -2.2841,2.868 -2.2841,2.868 -1.6229,1.6339 -1.6229,1.6339 -1.5673,3 -1.5674,3 -3.5597,3.9317 -3.5598,3.9316 v 0.6723 0.6724 l -2.25,2.5185 -2.25,2.5185 -2.5,2.9689 -2.5,2.9689 -2.5,3.314 -2.5,3.314 -5.3739,6.5946 -5.374,6.5946 -0.6317,0.5 -0.6318,0.5 -2.9178,4 -2.9179,4 -5.3264,6.1537 -5.3265,6.1537 v 0.5963 0.5963 l -1.75,1.8303 -1.75,1.8303 -7.5,7.9661 -7.5,7.9661 -2.276,2.9536 -2.2759,2.9536 -6.7462,7 -6.7461,7 -4.9522,6 -4.9521,6 -15.5258,15.9018 -15.5257,15.9019 -15.5599,15.5981 -15.5599,15.5982 -5.0149,4.5 -5.015,4.5 -3.0923,2.6839 -3.0923,2.6839 -8.8948,8.3161 -8.8947,8.3161 -10.4381,9.6056 -10.4381,9.6055 -3.5,3.2419 -3.5,3.2419 -14.5,11.6314 -14.5,11.6313 -0.5,0.5742 -0.5,0.5742 -6.4182,5.2938 -6.4182,5.2938 -1.2054,1.1532 -1.2055,1.1532 -4.3763,3.6643 -4.3764,3.6643 -5,3.5866 -5,3.5866 -3.5,2.3748 -3.5,2.3749 -2.574,2.4134 -2.5741,2.4134 -11.8781,8.9609 -11.8781,8.9608 -6.6863,5 -6.6864,5 -2.2245,1.5 -2.2246,1.5 -3.637,2.6964 -3.6369,2.6964 -2.6582,2.0536 -2.6581,2.0536 h -1.0021 -1.002 l -4.8398,3.7803 -4.8398,3.7803 -5,3.2267 -5,3.2267 -1.8891,1.243 -1.8891,1.243 -2.6109,2.1035 -2.6109,2.1036 -8.8975,5.8964 -8.8974,5.8965 -3.6026,2.23 -3.6025,2.2301 -1.5,0.6689 -1.5,0.669 -2.0952,1.8799 -2.0952,1.8798 -3.9048,2.0821 -3.9048,2.082 -2.6448,1.4099 -2.6448,1.4098 -1.2276,1.4792 -1.2277,1.4793 h -0.8462 -0.8461 l -6.2814,4.1576 -6.2814,4.1577 -2.7095,1.8423 -2.7095,1.8424 h -0.9056 -0.9057 l -2.8177,2.2164 -2.8178,2.2165 -3.0671,1.6968 -3.0671,1.6968 -3,1.4318 -3,1.4319 -1.3724,1.6549 -1.3725,1.6549 h -1.4698 -1.4698 l -2.5426,2 -2.5426,2 h -1.2102 -1.2101 l -1.81,2 -1.81,2 h -1.5412 -1.5413 l -3.5537,2.2749 -3.5538,2.2748 -2,1.2102 -2,1.2103 -3.465,1.5537 -3.4649,1.5537 -0.5351,0.767 -0.535,0.767 -4,2.0077 -4,2.0078 -6.9555,3.8205 -6.9555,3.8206 -1.3659,1.3659 -1.366,1.3659 h -1.7937 -1.7937 l -2.4638,1.938 -2.4637,1.938 -2.8159,0.7067 -2.8158,0.7068 -1.8552,1.8552 L 4924,3211 h -1.5923 -1.5922 l -2.5426,2 -2.5426,2 h -1.4574 -1.4574 l -2.5426,2 -2.5426,2 -1.6152,0.022 -1.6151,0.022 -2.5,1.9555 -2.5,1.9555 -1.6786,0.022 -1.6785,0.022 -1.5087,1.5086 -1.5086,1.5086 -4.4526,1.9087 -4.4527,1.9086 -0.6692,1.0827 -0.6691,1.0828 h -2.286 -2.286 l -1.7587,1.9433 -1.7587,1.9433 -3.1463,0.668 -3.1463,0.668 -1.5,1.2192 -1.5,1.2193 -4.75,1.7521 -4.75,1.7522 v 0.9173 0.9173 h -2.8651 -2.8652 l -2.4638,1.938 -2.4637,1.938 -2.9211,0.6963 -2.9211,0.6963 -1.5,1.2878 -1.5,1.2878 -3,0.7237 -3,0.7238 -2.6544,1.8541 -2.6543,1.8542 h -1.5513 -1.5512 l -3.6839,2.5 -3.684,2.5 -1.6104,0.031 -1.6105,0.031 -5,2.4596 -5,2.4596 -1.5275,0.01 -1.5275,0.01 -2.0236,1.4174 -2.0235,1.4173 -3.71,0.696 -3.71,0.696 -0.5029,0.8137 -0.5029,0.8137 -3.736,1.1591 -3.7361,1.1591 -5.5,2.0313 -5.5,2.0313 -1.8951,0.9816 -1.895,0.9816 -5.605,1.9832 -5.6049,1.9832 -4.6726,1.3411 -4.6726,1.3412 -2.3039,1.233 -2.3038,1.233 -3.0236,0.7815 -3.0235,0.7815 -10,3.5531 -10,3.5532 -1.7898,0.01 -1.7899,0.01 -3.9203,2 -3.9203,2 h -2.2899 -2.2898 l -3.2742,1.9962 -3.2741,1.9963 h -2.5255 -2.5255 l -2.8453,1.4714 -2.8453,1.4713 -3.8551,0.9719 -3.855,0.9719 -4.5,1.4776 -4.5,1.4776 -7.5,2.1916 -7.5,2.1917 -5.5,1.8377 -5.5,1.8378 -4,0.9712 -4,0.9712 -9,2.6235 -9,2.6236 -5.5,1.3508 -5.5,1.3509 -8,2.2122 -8,2.2121 -8.1923,1.7954 -8.1924,1.7954 -3.3076,1.0124 -3.3077,1.0124 -4,0.6551 -4,0.6551 -4.5,1.3821 -4.5,1.3821 -12.5,2.644 -12.5,2.6439 -4.5,1.3414 -4.5,1.3413 -14,2.6226 -14,2.6227 -9,1.8866 -9,1.8865 -11.5,2.0178 -11.5,2.0178 -5.5,1.0553 -5.5,1.0554 -10,1.4907 -10,1.4907 -1.5,0.5625 -1.5,0.5625 -13.5,1.9376 -13.5,1.9376 -7,0.9951 -7,0.995 -10.5,1.5157 -10.5,1.5157 -12.5,1.51 -12.5,1.5101 -10,1.0099 -10,1.01 -9,0.9553 -9,0.9554 -9.5,0.9811 -9.5,0.981 -13,1.0443 -13,1.0443 -16,0.9522 -16,0.9523 -18.5,1.2445 -18.5,1.2446 -87.0726,0.2911 -87.0725,0.291 -0.4903,-0.4903 z M 3034,2300.4088 l 13.5,-1.4651 9.5,-1.5669 9.5,-1.5669 14,-3.4272 14,-3.4271 6.5,-2.1055 6.5,-2.1055 9,-3.4691 9,-3.4691 13.5,-6.7641 13.5,-6.764 6.5,-4.3182 6.5,-4.3182 9.5,-7.0659 9.5,-7.0659 12.0353,-12.005 12.0354,-12.0051 6.6307,-8.357 6.6307,-8.3571 9.9624,-14.6429 9.9623,-14.643 5.7667,-9.5 5.7667,-9.5 7.1852,-14 7.1851,-14 4.2661,-10 4.2661,-10 3.8365,-10.2068 3.8365,-10.2068 4.5653,-15.7932 4.5653,-15.7932 2.9701,-14.5 2.9701,-14.5 1.5172,-12 1.5171,-12 1.0146,-12.8952 1.0146,-12.8952 v -15.5483 -15.5482 l -1.0512,-14.0565 -1.0512,-14.0566 -2.5381,-15.5 -2.5381,-15.5 -3.3408,-13 -3.3408,-13 -2.6925,-8 -2.6925,-8 -4.3068,-10.1293 -4.3067,-10.1294 -4.5592,-8.8706 -4.5591,-8.8707 -2.6035,-4.5 -2.6035,-4.5 -3.139,-5 -3.1391,-5 -9.0189,-11.9833 -9.019,-11.9832 -14,-14.0549 -14,-14.055 -10.5,-8.5515 -10.5,-8.5515 -7.5,-5.4567 -7.5,-5.4566 -8.5,-5.4003 -8.5,-5.4004 -15,-7.6058 -15,-7.6059 -8,-3.0962 -8,-3.0962 -9.5,-3.0313 -9.5,-3.0313 -10.5,-2.4879 -10.5,-2.4879 -8.5,-1.5156 -8.5,-1.5156 -9.5,-1.2411 -9.5,-1.2411 -23,-0.063 -23,-0.063 -16.5,2.3085 -16.5,2.3086 -6.8354,1.4336 -6.8354,1.4337 -10.1646,2.5454 -10.1646,2.5454 -9,3.0732 -9,3.0732 -11,4.4915 -11,4.4915 -17.75,8.5626 -17.75,8.5627 v 57.9064 57.9064 l 0.75,-0.3856 0.75,-0.3856 6.728,-3.1977 6.7281,-3.1978 h 1.3262 1.3261 l 4.5526,-2.8872 4.5526,-2.8871 2.3755,-0.754 2.3754,-0.7539 9.5236,-4.7603 9.5237,-4.7602 14.4941,-6.4763 14.4941,-6.4764 11,-4.0311 11,-4.0311 6,-1.5214 6,-1.5214 10.5,-1.5956 10.5,-1.5955 14,-0.1259 14,-0.1259 13.5,1.0293 13.5,1.0292 6.5,1.5934 6.5,1.5934 6,1.9595 6,1.9595 4.316,1.5873 4.316,1.5873 7.684,3.6388 7.684,3.6388 8.8244,5.45 8.8243,5.4499 8.6757,6.5944 8.6756,6.5944 10.3649,10.049 10.3648,10.0491 5.7411,7 5.741,7 3.5002,5.5 3.5002,5.5 4.4527,8.5 4.4526,8.5 3.0954,8 3.0954,8 3.0697,10.5 3.0697,10.5 1.4835,7.5 1.4834,7.5 1.6215,11 1.6214,11 0.5124,22.5 0.5123,22.5 -1.1074,8 -1.1074,8 -1.4564,11.766 -1.4564,11.766 -2.5853,8.734 -2.5853,8.734 -4.5568,12.5 -4.5569,12.5 -6.334,12.5 -6.334,12.5 -6.2246,9.5 -6.2247,9.5 -7.5471,10 -7.5471,10 -9.5294,9.521 -9.5294,9.5209 -2.5,2.0019 -2.5,2.0018 -8.5,5.6273 -8.5,5.6272 -5.5,2.9509 -5.5,2.9509 -9,3.5736 -9,3.5736 -9.5,2.5183 -9.5,2.5183 -11,1.8033 -11,1.8033 h -24 -24 l -7.5,-1.2827 -7.5,-1.2826 -8.5,-2.0464 -8.5,-2.0464 -8,-2.8056 -8,-2.8056 -6.7541,-3.0675 -6.7541,-3.0674 -7.648,-4.6427 -7.648,-4.6426 -6.5979,-5.0527 -6.5979,-5.0527 -9.529,-9.5947 -9.529,-9.5946 -5.727,-7.7485 -5.7271,-7.7485 -5.059,-8.7515 -5.059,-8.7515 -4.3295,-9 -4.3296,-9 -2.5055,-6.5 -2.5056,-6.5 -2.558,-8 -2.558,-8 -2.4851,-10 -2.4851,-10 -1.6214,-10 -1.6214,-10 -1.4061,-15.5 -1.406,-15.5 -0.029,-299.2343 -0.029,-299.2343 -59.0002,-0.2657 -59.0002,-0.2657 0.01,293.5 0.01,293.5 1,16.5 1,16.5 1.5534,12.5 1.5535,12.5 2.9944,14.968 2.9944,14.968 2.5014,9.532 2.5014,9.532 3.5437,11.5 3.5438,11.5 5.9955,15.3191 5.9956,15.3191 9.2441,18.1809 9.2442,18.1809 7.2469,11.5 7.247,11.5 5.1614,7.3722 5.1614,7.3723 8.5934,10.1277 8.5935,10.1278 7.9218,7.5 7.9219,7.5 4.4847,3.6986 4.4847,3.6985 4.9087,3.666 4.9087,3.6659 10.1732,6.2883 10.1732,6.2882 6.9181,3.4769 6.9181,3.4769 8.5,3.4976 8.5,3.4975 7.3882,2.6512 7.3882,2.6511 13.6118,3.4956 13.6118,3.4955 11,1.9122 11,1.9121 10,1.1891 10,1.1891 13,0.7851 13,0.7851 19.5,-0.4733 19.5,-0.4733 13.5,-1.4651 z m 1035.5,-9.895 15,-1.4453 9,-1.6396 9,-1.6397 13.2544,-3.3944 13.2543,-3.3945 11.2457,-4.1286 11.2456,-4.1286 11.5,-5.6741 11.5,-5.6741 8.5,-5.4464 8.5,-5.4465 9.5,-7.6724 9.5,-7.6724 6.1511,-5.8286 6.1512,-5.8286 6.3488,-7.048 6.3489,-7.048 3.5356,-3.952 3.5356,-3.952 6.5128,-8 6.5129,-8 5.2606,-7.5 5.2606,-7.5 4.4461,-6.8508 4.4462,-6.8509 5.5375,-9.6491 5.5375,-9.6492 5.405,-11 5.4049,-11 3.1056,-7.5 3.1056,-7.5 4.5094,-12.5 4.5093,-12.5 4.354,-17 4.3541,-17 2.112,-12.5 2.1121,-12.5 1.2213,-13 1.2213,-13 -0.074,-28 -0.074,-28 -1.6836,-15.1664 -1.6835,-15.1664 -2.0238,-11.8336 -2.0237,-11.8336 -3.6204,-15 -3.6204,-15 -3.8771,-10.8771 -3.8771,-10.8771 -3.5385,-8.5482 -3.5385,-8.5482 -6.3209,-12.1778 -6.3209,-12.1778 -2.8499,-4.3969 -2.8498,-4.3969 -6.4155,-9 -6.4156,-9 -2.9537,-3.5 -2.9537,-3.5 -8.9331,-9.1652 -8.9331,-9.1652 -12.7092,-10.4483 -12.7092,-10.4483 -4.5,-3.172 -4.5,-3.1721 -11.5,-7.768 -11.5,-7.768 -8,-4.6408 -8,-4.6408 -16.5,-7.9883 -16.5,-7.9883 -6,-2.1666 -6,-2.1666 -11.5,-3.8325 -11.5,-3.8325 -7.5,-1.994 -7.5,-1.9941 -8.5,-1.6484 -8.5,-1.6484 -8,-0.9257 -8,-0.9257 -19,-1.0659 -19,-1.0658 -17,1.0759 -17,1.0759 -10,1.5227 -10,1.5228 -11.5,2.558 -11.5,2.5581 -11,3.5141 -11,3.5141 -10.6228,4.3235 -10.6227,4.3234 -12.0995,6.0653 -12.0995,6.0653 -6.7778,4.1463 -6.7777,4.1464 -9.6433,6.3158 -9.6433,6.3158 -10.3567,8.2266 -10.3567,8.2266 -3.4581,3.0675 -3.4581,3.0674 -8.4271,8 -8.427,8 -8.786,9.8413 -8.786,9.8413 -8.0788,11.3269 -8.0789,11.327 v 0.511 0.5111 l -3.8642,5.8207 -3.8643,5.8207 -5.073,10 -5.0729,10 -2.9127,6.5 -2.9127,6.5 -4.0439,11 -4.044,11 -3.007,11 -3.0071,11 -1.5603,7.5 -1.5603,7.5 -1.0412,6.0204 -1.0411,6.0203 -1.5339,12.4797 -1.5339,12.4796 -0.592,24.5 -0.5919,24.5 1.151,16 1.1509,16 1.0514,8.5 1.0513,8.5 2.9345,16.1558 2.9346,16.1558 2.4429,9.6303 2.4429,9.6302 2.1701,6.714 2.1702,6.7139 4.9345,14 4.9346,14 8.803,18.0543 8.803,18.0544 8.0811,13.0081 8.0812,13.0082 8.9631,11.9375 8.963,11.9375 6.9955,7.771 6.9954,7.7709 7.3511,6.6066 7.3511,6.6066 8,6.188 8,6.188 9,5.5842 9,5.5842 7,3.6635 7,3.6634 10.3087,4.4428 10.3087,4.4427 10.191,3.5473 10.1911,3.5473 11.1486,2.9753 11.1486,2.9752 15.8517,2.8991 15.8516,2.8992 16,1.5678 16,1.5678 4.5,0.3298 4.5,0.3299 24,0.1542 24,0.1542 15,-1.4452 z m -73,-109.2093 -4,-0.3594 -11.5,-1.5287 -11.5,-1.5287 -8,-2.0007 -8,-2.0007 -8.5,-3.078 -8.5,-3.078 -5,-2.4945 -5,-2.4944 -6.8952,-4.4444 -6.8951,-4.4445 -1.4263,-1.4262 -1.4263,-1.4263 h -0.8644 -0.8645 l -9.5641,-9.5641 -9.5641,-9.5641 v -0.7829 -0.7829 l -2.1076,-2.403 -2.1076,-2.403 -4.2874,-6 -4.2873,-6 -6.1103,-9.8187 -6.1103,-9.8187 -4.4229,-8.6813 -4.423,-8.6813 -2.6828,-6 -2.6829,-6 -4.2411,-12.5 -4.2412,-12.5 -1.5894,-7 -1.5895,-7 -2.5573,-14 -2.5573,-14 -0.9812,-7 -0.9813,-7 -0.02,-25.7107 -0.02,-25.7107 3.0021,-13.7893 3.002,-13.7893 1.6649,-6.5 1.6649,-6.5 2.2113,-7 2.2114,-7 4.6531,-11.2854 4.653,-11.2854 2.872,-5.3085 2.872,-5.3084 3.3043,-5.9062 3.3043,-5.9061 7.0423,-9.9033 7.0424,-9.9032 7.0882,-8.0968 7.0882,-8.0967 5.745,-5.2757 5.7451,-5.2757 7.1667,-4.8359 7.1668,-4.836 7.5,-3.7781 7.5,-3.778 10.3997,-3.3719 10.3997,-3.3718 9.6003,-1.9469 9.6003,-1.9469 9.5,-1.238 9.5,-1.2379 h 21.5 21.5 l 10,1.2774 10,1.2773 10,1.9709 10,1.9709 13.1541,4.3729 13.154,4.373 9.9838,4.9437 9.9838,4.9437 5.8621,3.84 5.8622,3.84 4,3.0287 4,3.0286 7.2184,6.3209 7.2184,6.3208 6.0909,7.5715 6.0909,7.5714 5.1367,7.6123 5.1367,7.6123 5.6754,11.0046 5.6753,11.0047 4.072,11 4.072,11 3.0318,12.5 3.0318,12.5 1.7729,12 1.773,12 v 31 31 l -1.298,12.5 -1.2981,12.5 -1.9989,12 -1.9989,12 -2.033,8.5 -2.033,8.5 -3.9967,12 -3.9967,12 -3.762,8.0504 -3.7619,8.0505 -3.6584,5.719 -3.6584,5.7189 v 0.5918 0.5918 l -4.1686,5.1388 -4.1686,5.1388 -8.5345,8.2798 -8.5346,8.2799 -8.5901,5.8835 -8.5901,5.8834 -5.4567,3.1099 -5.4568,3.1098 -7.5,3.831 -7.5,3.8311 -9.5,3.6139 -9.5,3.6139 -8.9668,2.5623 -8.9668,2.5623 -11.0332,1.9408 -11.0332,1.9407 -10.356,1.0289 -10.3559,1.0288 -13.6441,-0.1681 -13.644,-0.1681 -4,-0.3593 z m 1164,108.2562 13,-1.6616 12.5,-2.4918 12.5,-2.4918 5,-1.5912 5,-1.5913 9.4121,-3.8856 9.4122,-3.8856 12.0878,-6.2575 12.0879,-6.2575 9.2262,-5.9716 9.2262,-5.9716 1.5681,-3.0018 1.5682,-3.0018 -0.2943,-70.2161 -0.2944,-70.2162 -18.5,17.9984 -18.5,17.9984 -6.8849,5.7178 -6.8848,5.7177 -8.6152,6.3277 -8.6151,6.3277 -7,3.2857 -7,3.2857 -3.5,1.5413 -3.5,1.5414 -6,2.4798 -6,2.4798 -8.5884,2.0936 -8.5884,2.0936 -11.9116,1.0858 -11.9116,1.0857 -12,-0.4393 -12,-0.4394 -9.8075,-1.0795 -9.8075,-1.0794 -12.2843,-2.988 -12.2843,-2.988 -12.9082,-5.0363 -12.9082,-5.0363 -12.2544,-6.9359 -12.2543,-6.9359 -7.7457,-5.2306 -7.7456,-5.2306 -9.5,-7.5227 -9.5,-7.5226 -4.0291,-4.0817 -4.0292,-4.0816 -5.0428,-6 -5.0429,-6 -3.4648,-5 -3.4648,-5 -2.603,-4.5 -2.6031,-4.5 -3.5468,-7 -3.5469,-7 -1.6344,-4 -1.6343,-4 -1.8655,-5.5 -1.8654,-5.5 -2.0087,-7 -2.0087,-7 -2.0372,-10.2703 -2.0372,-10.2702 -1.5176,-14.4513 -1.5176,-14.4513 1e-4,-12.2785 1e-4,-12.2784 1.9773,-15.5771 1.9773,-15.5771 1.5462,-7.4229 1.5462,-7.4229 2.0112,-7.5 2.0111,-7.5 4.0945,-11 4.0944,-11 4.505,-9 4.5049,-9 3.7353,-5.5 3.7354,-5.5 7.7206,-9.5 7.7207,-9.5 10.6598,-10.5556 10.6599,-10.5557 4.8425,-3.9443 4.8425,-3.9444 7.7576,-5.5613 7.7577,-5.5613 15.8999,-8.0901 15.8998,-8.0901 7,-2.1616 7,-2.1615 15,-2.9279 15,-2.9278 10.735,-1.0795 10.7349,-1.0796 20.2651,1.0805 20.265,1.0804 10,1.4964 10,1.4963 9,1.9675 9,1.9675 6.9252,2.0056 6.9251,2.0055 7.0749,2.681 7.0748,2.6811 7.4195,3.86 7.4194,3.86 8.218,5.4681 8.218,5.468 9.6607,10.1602 9.6607,10.1603 7.968,11.9203 7.968,11.9202 4.597,9.578 4.5969,9.5779 2.9157,8.603 2.9158,8.6029 1.5432,6.5 1.5432,6.5 1.1022,5 1.1022,5 0.5758,188.5 0.5757,188.5 58.7766,0.258 58.7766,0.258 -0.3625,-194.758 -0.3625,-194.758 -1.5636,-9 -1.5635,-9 -1.661,-7.8466 -1.6609,-7.8466 -2.4889,-8.6534 -2.4888,-8.6534 -3.6371,-10 -3.637,-10 -7.5701,-15 -7.57,-15 -7.6352,-11.5 -7.6351,-11.5 -7.6849,-9.5 -7.685,-9.5 -3.0905,-3.5 -3.0905,-3.5 -6.583,-6.9547 -6.5831,-6.9546 -9,-8.122 -9,-8.1219 -7.6363,-5.5964 -7.6362,-5.5965 -8.8638,-5.4616 -8.8637,-5.4616 -10.0656,-5.032 -10.0657,-5.0319 -12.9343,-4.9721 -12.9344,-4.9721 -8.5,-2.5205 -8.5,-2.5205 -8.5,-2.0042 -8.5,-2.0042 -8.5,-1.5489 -8.5,-1.5488 -7,-1.0183 -7,-1.0183 -10.5,-1.2695 -10.5,-1.2694 h -36 -36 l -14.5,1.7919 -14.5,1.7919 -15,2.9755 -15,2.9756 -12.0772,3.4943 -12.0773,3.4944 -11.4245,4.3344 -11.4246,4.3344 -11.4982,5.7441 -11.4982,5.744 -3.5,2.079 -3.5,2.0791 -8.5,5.54 -8.5,5.54 -7,5.4722 -7,5.4722 -3.9678,3.5669 -3.9679,3.5669 -7.5597,7.5 -7.5597,7.5 -5.6388,6.5 -5.6388,6.5 -5.4136,7 -5.4136,7 -6.5357,9.5 -6.5357,9.5 -6.6797,11.7859 -6.6797,11.7859 -5.0263,10.5774 -5.0263,10.5774 -3.9342,10.0952 -3.9342,10.0952 -3.9417,13.0415 -3.9416,13.0415 -2.5284,11.5 -2.5283,11.5 -1.594,10 -1.594,10 -1.4096,14.5 -1.4097,14.5 -0.018,20.5 -0.018,20.5 0.9877,13.5 0.9877,13.5 1.0682,9 1.0681,9 2.5,14.5 2.5,14.5 1.996,8 1.9959,8 3.5468,11.5 3.5468,11.5 4.4505,11.5 4.4505,11.5 6.4654,13.1756 6.4653,13.1757 4.134,6.8243 4.134,6.8244 5.0171,7.5 5.0171,7.5 4.5508,6 4.5508,6 1.0312,1.1193 1.0312,1.1194 4.4757,5.3806 4.4756,5.3807 7.0244,7.3725 7.0243,7.3726 12,10.2338 12,10.2338 10,6.9502 10,6.9502 8,4.5661 8,4.566 8,4.0083 8,4.0083 13.5,5.0479 13.5,5.0478 12,2.9948 12,2.9949 10,1.623 10,1.6231 8,0.8791 8,0.879 38,-0.3145 38,-0.3146 13,-1.6616 z m -454.25,-7.5582 H 4776 v -56.5296 -56.5296 l -43.75,0.7796 -43.75,0.7796 h -38 -38 l -6.5,-1.2897 -6.5,-1.2898 -7.9254,-2.6944 -7.9254,-2.6944 -5.7075,-5.5158 -5.7075,-5.5159 -2.2192,-6 -2.2193,-6 -2.3667,-9.4728 -2.3668,-9.4728 -1.0633,-9.5272 -1.0634,-9.5272 -0.2177,-164.75 -0.2178,-164.7501 112.7584,10e-5 h 112.7584 l -0.2584,-55.75 -0.2584,-55.75 -112.5,-0.2541 -112.5,-0.2541 0.282,-73.7459 0.282,-73.7459 -0.551,-2.25 -0.5511,-2.25 H 4501.9809 4444 v 296.5574 296.5573 l 0.9692,6.6927 0.9692,6.6926 1.577,11.9032 1.5769,11.9033 3.8687,15.0967 3.8686,15.0968 3.1318,8.5 3.1317,8.5 5.9136,12 5.9137,12 8.2049,12.5 8.2048,12.5 9.585,9.5705 9.5849,9.5705 7.5,5.0361 7.5,5.0361 8.5,4.0138 8.5,4.0137 6.5,2.108 6.5,2.108 9,2.1196 9,2.1196 10,1.3659 10,1.3659 21.5,-0.4614 21.5,-0.4614 h 69.75 z m -1148.857,-1.5843 0.607,-1.5818 -0.014,-307.1682 -0.014,-307.1682 -0.6089,-2.2727 -0.6089,-2.2727 -53.6275,0.2727 -53.6274,0.2727 -0.256,309.5 -0.256,309.5 0.4746,1.25 0.4746,1.25 h 53.4244 53.4244 l 0.607,-1.5818 z m -43.2173,-692.4174 11.6758,-0.9676 8.2404,-3.0074 8.2403,-3.0073 6.3365,-4.1284 6.3365,-4.1284 5.6781,-6.1309 5.6781,-6.1308 3.8749,-8.2659 3.8748,-8.2659 1.4271,-6.7341 1.4271,-6.7341 v -10.5 -10.5 l -1.4644,-6.9124 -1.4644,-6.9125 -3.046,-6.5091 -3.046,-6.5092 -4.2223,-5.1901 -4.2222,-5.1902 -6,-4.491 -6,-4.4911 -5.5,-3.0692 -5.5,-3.0693 -7.5,-2.3074 -7.5,-2.3074 -12.5,-0.021 -12.5,-0.021 -6,1.8378 -6,1.8379 -4.9724,2.1621 -4.9724,2.1622 -7.0276,4.6246 -7.0276,4.6245 -4.0939,4.3755 -4.0939,4.3754 -2.9558,5 -2.9557,5 -1.656,4.5 -1.6559,4.5 -1.1804,6.9412 -1.1803,6.9411 0.5677,12.5589 0.5677,12.5588 2.1391,7.4929 2.139,7.4929 3.1316,5.8754 3.1315,5.8754 5.6707,5.7594 5.6707,5.7594 5.9268,3.4736 5.9269,3.4736 6.513,2.6056 6.5129,2.6056 6.4372,0.9197 6.4371,0.9196 0.5,0.1076 0.5,0.1076 11.6757,-0.9675 z M 580.75,2288.2943 l 2.25,-0.4334 2.25,0.4334 2.25,0.4333 H 583 578.5 Z M 2164.49,2094.5 v -195 l 0.26,97.8296 0.2599,97.8296 -0.26,97.1704 -0.2599,97.1704 z m -1563.6775,192.8169 1.3125,-0.5252 0.60417,0.6041 0.60416,0.6042 -1.91666,-0.079 -1.91667,-0.079 1.3125,-0.5252 z M 716.5,2245 l 1.80998,-2 h 0.5 0.5 l -1.80998,2 -1.80998,2 h -0.5 -0.5 z m 591.5,-12.3776 v -0.3775 l 1.75,-1.3725 1.75,-1.3724 -1.3724,1.75 -1.3725,1.75 H 1308.3776 1308 Z M 933.87244,2227.25 932.5,2225.5 l 1.75,1.3724 1.75,1.3725 v 0.3775 0.3776 h -0.37756 -0.37755 z m 174.94006,-36.9331 1.3125,-0.5252 0.6042,0.6041 0.6041,0.6042 -1.9166,-0.079 -1.9167,-0.079 1.3125,-0.5252 z m -557.0625,-11.0226 2.25,-0.4334 2.25,0.4334 2.25,0.4333 h -4.5 -4.5 z m 478.1743,-19.0443 -2.4243,-2.75 2.75,2.4243 2.75,2.4243 v 0.3257 0.3257 h -0.3257 -0.3257 z m -245.84535,-73.8333 0.0789,-1.9167 0.52522,1.3125 0.52522,1.3125 -0.60416,0.6042 -0.60417,0.6041 0.0789,-1.9166 z m 585.99995,-1 0.079,-1.9167 0.5252,1.3125 0.5252,1.3125 -0.6041,0.6042 -0.6042,0.6041 0.079,-1.9166 z m -698.99995,-5 0.0789,-1.9167 0.52522,1.3125 0.52522,1.3125 -0.60416,0.6042 -0.60417,0.6041 0.079,-1.9166 z M 1371.3885,2059.5 v -13 l 0.3508,6.7916 0.3508,6.7916 -0.354,6.2084 -0.3539,6.2084 v -13 z m -586.06843,2.5 v -6.5 l 0.40333,3.25 0.40332,3.25 -0.40332,3.25 -0.40333,3.25 z m 468.75883,-5.5833 0.079,-1.9167 0.5252,1.3125 0.5252,1.3125 -0.6041,0.6042 -0.6042,0.6041 0.079,-1.9166 z m -265.99995,-10 0.0789,-1.9167 0.52522,1.3125 0.52522,1.3125 -0.60416,0.6042 -0.60417,0.6041 0.0789,-1.9166 z m -204,-7 0.0789,-1.9167 0.52522,1.3125 0.52522,1.3125 -0.60416,0.6042 -0.60417,0.6041 0.0789,-1.9166 z M 634.87244,1991.25 633.5,1989.5 l 1.75,1.3724 1.75,1.3725 v 0.3775 0.3776 h -0.37756 -0.37755 z m -15.46745,-15.5 -1.90499,-2.25 2.25,1.905 2.25,1.905 v 0.345 0.345 h -0.34501 -0.34501 z M 1839.1579,1899 v -2.5 l 0.5044,1.25 0.5044,1.25 -0.5044,1.25 -0.5044,1.25 z m 326.1849,-7.5 0.01,-8 0.3841,4.2764 0.3841,4.2765 -0.3907,3.7235 -0.3907,3.7236 0.01,-8 z m -1456.47036,-1.25 -1.37244,-1.75 1.75,1.3724 1.75,1.3725 v 0.3775 0.3776 h -0.37756 -0.37755 z m -16,-15 -1.37244,-1.75 1.75,1.3724 1.75,1.3725 v 0.3775 0.3776 h -0.37756 -0.37755 z M 1504.1579,1859 v -2.5 l 0.5044,1.25 0.5044,1.25 -0.5044,1.25 -0.5044,1.25 z m 0.921,-12.5833 0.079,-1.9167 0.5252,1.3125 0.5252,1.3125 -0.6041,0.6042 -0.6042,0.6041 0.079,-1.9166 z M 1982.5,1807 l 1.81,-2 h 0.5 0.5 l -1.81,2 -1.81,2 h -0.5 -0.5 z m -179.6276,-2.75 -1.3724,-1.75 1.75,1.3724 1.75,1.3725 v 0.3775 0.3776 h -0.3776 -0.3775 z m 322,-3 -1.3724,-1.75 1.75,1.3724 1.75,1.3725 v 0.3775 0.3776 h -0.3776 -0.3775 z M 1988,1801.6224 v -0.3775 l 1.75,-1.3725 1.75,-1.3724 -1.3724,1.75 -1.3725,1.75 H 1988.3776 1988 Z M 297.97111,1775.25 291.5,1768.5 l 6.75,6.4711 6.75,6.4711 v 0.2789 0.2789 h -0.27889 -0.27889 z m 1426.77889,-2.9123 1.25,-0.5044 1.25,0.5044 1.25,0.5044 h -2.5 -2.5 z m 333.0117,-0.045 2.2616,-0.4349 1.7384,0.4551 1.7383,0.4551 -4,-0.02 -4,-0.02 2.2617,-0.4349 z m 167.707,-32.5427 -5.9687,-6.25 6.25,5.9687 6.25,5.9687 v 0.2813 0.2813 h -0.2813 -0.2813 z M 1551,1743.6224 v -0.3775 l 1.75,-1.3725 1.75,-1.3724 -1.3724,1.75 -1.3725,1.75 H 1551.3776 1551 Z m 351.5,-9.6224 5.9374,-6 h 0.5 0.5 l -5.9374,6 -5.9374,6 h -0.5 -0.5 z m -33.6276,-6.75 -1.3724,-1.75 1.75,1.3724 1.75,1.3725 v 0.3775 0.3776 h -0.3776 -0.3775 z M 1567,1727.6224 v -0.3775 l 1.75,-1.3725 1.75,-1.3724 -1.3724,1.75 -1.3725,1.75 H 1567.3776 1567 Z M 377.92431,1680.25 375.5,1677.5 l 2.75,2.4243 2.75,2.4243 v 0.3257 0.3257 h -0.32569 -0.32568 z m 1371.88819,-6.9331 1.3125,-0.5252 0.6042,0.6041 0.6041,0.6042 -1.9166,-0.079 -1.9167,-0.079 1.3125,-0.5252 z m 331,0 1.3125,-0.5252 0.6042,0.6041 0.6041,0.6042 -1.9166,-0.079 -1.9167,-0.079 1.3125,-0.5252 z m -358.0625,-0.9792 1.25,-0.5044 1.25,0.5044 1.25,0.5044 h -2.5 -2.5 z m 336,0 1.25,-0.5044 1.25,0.5044 1.25,0.5044 h -2.5 -2.5 z M 241.15789,1650 v -2.5 l 0.50439,1.25 0.50439,1.25 -0.50439,1.25 -0.50439,1.25 z m 116.18492,-30.5 0.007,-8 0.38409,4.2764 0.38408,4.2765 -0.39069,3.7235 -0.39068,3.7236 0.007,-8 z M 241.15789,1604 v -2.5 l 0.50439,1.25 0.50439,1.25 -0.50439,1.25 -0.50439,1.25 z m 0.92106,-13.5833 0.079,-1.9167 0.52522,1.3125 0.52521,1.3125 -0.60416,0.6042 -0.60417,0.6041 0.0789,-1.9166 z M 396,1537.6224 v -0.3775 l 1.75,-1.3725 1.75,-1.3724 -1.37244,1.75 -1.37245,1.75 H 396.37756 396 Z M 287.95821,1480.75 292.41642,1476 H 292.70821 293 v 0.2918 0.2918 l -4.75,4.4582 -4.75,4.4582 z M 301,1468.6224 v -0.3775 l 1.75,-1.3725 1.75,-1.3724 -1.37244,1.75 -1.37245,1.75 H 301.37756 301 Z m 150.75,-66.3546 4.25,-0.3828 4.25,0.3828 4.25,0.3828 h -8.5 -8.5 z m 107,-1.0103 7.25,-0.3451 7.25,0.3451 7.25,0.3451 H 566 551.5 Z m 116.54571,-1.0016 7.7957,-0.3417 7.2043,0.3442 7.20429,0.3442 -15,-0 -15,-0 7.79571,-0.3416 z"
     id="path132" /><path
     style="fill:#ffffff;fill-opacity:1"
     d="m 1074,2429.071 v -129.9291 l -5.75,-1.6116 -5.75,-1.6116 -13.8993,-4.5422 -13.8993,-4.5423 -10.6007,-4.516 -10.6007,-4.5161 -10.9021,-5.4726 -10.90204,-5.4727 -10.09793,-6.0837 -10.09793,-6.0837 -7.5,-5.0127 -7.5,-5.0127 -6,-4.5123 -6,-4.5123 -8.40517,-7.0596 -8.40517,-7.0597 -6.95527,-8.01 -6.95528,-8.0101 -6.97601,-10.5 -6.97602,-10.5 -4.82493,-10.037 -4.82492,-10.0369 -3.64628,-10.4631 -3.64628,-10.463 -3.0008,-11.8146 -3.0008,-11.8147 -2.12895,-12.6853 L 872.62518,2094.5 872.29192,1887.25 871.95865,1680 H 929.47933 987 v 179.5574 179.5573 l 0.95922,6.6927 0.95922,6.6926 1.10785,10.5 1.10786,10.5 1.93816,9 1.93816,9 3.06373,10 3.0637,10 6.8258,14 6.8257,14 5.0063,7.6292 5.0062,7.6293 5.5507,5.5506 5.5507,5.5507 6.1764,4.1944 6.1765,4.1943 7.1219,3.271 7.1219,3.271 8.2801,2.5979 8.2802,2.598 11.2198,2.1178 11.2199,2.1178 20.8633,0.5155 20.8633,0.5156 9.1367,-1.2403 9.1367,-1.2403 8.5,-2.4486 8.5,-2.4487 6,-2.6242 6,-2.6243 6.8719,-4.372 6.872,-4.3721 5.5021,-5.1913 5.5021,-5.1913 4.2556,-5.5176 4.2556,-5.5177 4.5782,-7.7436 4.5782,-7.7437 4.1561,-8.7387 4.1561,-8.7387 3.8705,-11.5644 3.8705,-11.5645 1.9371,-9.4355 1.937,-9.4356 1.0785,-9.7106 1.0785,-9.7106 V 1867.0394 1680 h 57.4199 57.4199 l 0.3559,201.25 0.356,201.25 -1.2046,11 -1.2046,11 -1.9868,10.0963 -1.9869,10.0963 -3.146,10.8877 -3.146,10.8877 -4.4303,11.3305 -4.4303,11.3304 -5.5173,10.7863 -5.5173,10.7862 -6.3963,10.0883 -6.3964,10.0884 -7.2409,9.8109 -7.2408,9.811 -11.1416,11 -11.1415,11 -9.4621,6.7121 -9.462,6.7122 -9,4.998 -9,4.998 -10.474,4.5746 -10.474,4.5745 -12.177,3.8929 -12.177,3.8929 -11.849,2.5925 -11.849,2.5926 -2.25,0.4989 -2.25,0.4989 V 2429.0191 2559 h -52 -52 z M 231,2234.0269 v -55.0716 l 168.98863,0.071 168.98864,0.071 9.76136,-1.6481 9.76137,-1.648 9.5,-3.0036 9.5,-3.0037 9,-4.5049 9,-4.5049 6.75534,-4.9903 6.75533,-4.9904 5.58402,-6.1514 5.58401,-6.1514 4.91886,-7.9715 4.91886,-7.9716 3.44013,-9.0284 3.44012,-9.0285 1.16819,-4.5 1.16819,-4.5 1.24657,-7.1195 1.24656,-7.1194 -0.87375,-10.3334 -0.87376,-10.3333 -2.01684,-8.492 -2.01683,-8.4919 -3.49769,-8.7422 -3.49769,-8.7422 -4.51966,-8.0369 -4.51967,-8.037 -6.11137,-8.2761 -6.11138,-8.2761 -8.09377,-8.3555 -8.09377,-8.3555 -9.78409,-7.895 -9.78409,-7.895 -10.21591,-6.8408 -10.21591,-6.8408 -10,-6.0086 -10,-6.0086 -14,-7.2806 -14,-7.2806 -8.15393,-4.3695 -8.15392,-4.3695 h -2.04639 -2.04638 l -0.79969,-1.3203 -0.79969,-1.3203 -20,-10.3286 -20,-10.3287 -18,-9.9588 -18,-9.9589 -14.5,-8.5686 -14.5,-8.5686 -17.5,-10.946 -17.5,-10.9461 -21.5,-14.5107 -21.5,-14.5108 -8.5,-6.5798 -8.5,-6.5797 -11.3687,-11.0371 -11.3687,-11.037 -6.25407,-8 -6.25407,-8 -5.50764,-8.5 -5.50764,-8.5 -4.24976,-8.4867 -4.24975,-8.4867 -3.28622,-8.5133 -3.28622,-8.5133 -2.08711,-8.1803 -2.08712,-8.1803 -1.4875,-7.7745 -1.48751,-7.7745 -1.14057,-13.5452 -1.14056,-13.5452 0.58915,-22 0.58915,-22 1.09717,-9.5 1.09717,-9.5 2.49231,-12.5 2.49231,-12.5 3.90474,-11.7086 3.90474,-11.7086 4.0383,-8.4611 4.0383,-8.461 6.227,-9.3304 6.227,-9.3303 9.0329,-9.3686 9.0329,-9.3687 9,-7.7236 9,-7.7237 9.5,-6.9797 9.5,-6.9797 9.09652,-5.5897 9.09652,-5.5896 7.90348,-3.9674 7.90348,-3.9674 8.5,-3.5094 8.5,-3.5093 11,-3.4553 11,-3.4552 9,-1.7596 9,-1.7596 12,-2.5043 12,-2.5042 139,-1.3327 139,-1.3328 11.25,-0.06 L 748,1400 v 55 55 H 608.09937 468.19875 l -11.47239,1.9613 -11.47238,1.9613 -6.87699,1.9174 -6.87699,1.9174 -8.09252,3.1332 -8.09253,3.1333 -8.90747,5.8831 -8.90748,5.8831 -7.06039,7.3549 -7.06039,7.355 -4.55694,6.5 -4.55693,6.5 -3.01963,5.5 -3.01964,5.5 -3.10292,8.801 -3.10292,8.801 -2.12165,9.699 -2.12166,9.699 -0.50441,3.8644 -0.50441,3.8644 1.18308,12.5832 1.18309,12.5833 2.9118,9.0523 2.91179,9.0524 4.25255,6.4844 4.25255,6.4845 5.70368,5.6158 5.70367,5.6158 20.81484,14.5348 20.81484,14.5348 11.95185,7.7398 11.95185,7.7398 11.04815,6.723 11.04815,6.723 10.5,6.044 10.5,6.0441 21.5,11.5017 21.5,11.5017 28.5,15.4793 28.5,15.4793 8.91865,5.1979 8.91864,5.1978 5.58136,3.0041 5.58135,3.0042 5.52328,3.1751 5.52328,3.1751 11.47672,7.5948 11.47672,7.5948 8.22282,5.0892 8.22281,5.0892 9.7186,7.7371 9.71859,7.737 11.93554,11.579 11.93555,11.5789 8.67636,10.0385 8.67636,10.0386 7.54342,9.9614 7.54343,9.9615 4.79007,7.4737 4.79007,7.4736 4.74389,9.5264 4.7439,9.5263 3.64601,9.7777 3.646,9.7776 2.4849,9.2224 2.4849,9.2223 2.21279,12 2.21279,12 -0.004,29 -0.004,29 -2.70316,21.2504 -2.70315,21.2503 -2.59193,10.2497 -2.59193,10.2496 -4.42585,11.3363 -4.42584,11.3363 -4.9719,9.6637 -4.97191,9.6637 -5.84045,9 -5.84046,9 -8.06736,10 -8.06736,10 -9.36985,9.0511 -9.36985,9.0512 -7.5,5.0069 -7.5,5.0069 -4.5,2.5685 -4.5,2.5685 -11.5,4.5727 -11.5,4.5726 -9.5,2.4552 -9.5,2.4552 -12.5,2.085 -12.5,2.0849 -10,1.1529 -10,1.1528 -183.25,0.4071 -183.25,0.4071 v -55.0717 z m 1273.0103,-156.7769 0.01,-211.75 1.0132,-12 1.0131,-12 1.951,-10 1.951,-10 2.4105,-8.0419 2.4105,-8.0419 2.7571,-6.9581 2.7571,-6.9581 3.4718,-6.9511 3.4718,-6.9511 4.9678,-8.0098 4.9679,-8.0098 6.6546,-8.5391 6.6547,-8.5391 9.5136,-9.574 9.5137,-9.574 7.6686,-6.0592 7.6686,-6.0593 8.7657,-5.7727 8.7658,-5.7727 13.0656,-6.2692 13.0657,-6.2692 12.086,-3.9848 12.086,-3.9849 9.414,-2.0247 9.414,-2.0248 10.5,-1.6497 10.5,-1.6497 24.0703,-0.5437 24.0703,-0.5437 13.4297,1.1644 13.4297,1.1643 9,1.507 9,1.5071 11,2.9067 11,2.9068 7.4498,3.0757 7.4499,3.0757 6.2164,3.4764 6.2164,3.4764 7.9756,5.9135 7.9756,5.9136 7.1756,6.7692 7.1757,6.7691 6.0885,7.5652 6.0885,7.5652 4.5607,7 4.5608,7 0.3361,0.4695 0.3361,0.4695 2.6477,-3.4695 2.6478,-3.4695 8.5494,-8.8878 8.5494,-8.8878 9.5621,-7.6716 9.5622,-7.6716 11.9378,-7.5572 11.9379,-7.5573 7.4731,-3.7582 7.473,-3.7583 8.7993,-3.3983 8.7992,-3.3983 11.2277,-2.8875 11.2277,-2.8876 11.5,-1.8163 11.5,-1.8162 27.5,-0.023 27.5,-0.023 9,1.2991 9,1.2991 11.5,2.5431 11.5,2.5431 12,4.004 12,4.0039 13.0981,6.3777 13.098,6.3776 11.0215,7.3637 11.0214,7.3637 9.4053,7.5647 9.4053,7.5647 10.5252,10.8943 10.5253,10.8942 6.2632,9.3637 6.2633,9.3637 4.8301,10.0899 4.8302,10.0898 3.0843,10 3.0844,10 1.6367,9.5 1.6366,9.5 0.1356,11 0.1355,11 -0.25,217.75 -0.25,217.75 h -52.5348 -52.5349 l 0.108,-204.4948 0.1081,-204.4948 -2.1181,-9.7552 -2.118,-9.7552 -1.4909,-6 -1.4909,-6 -4.9481,-10 -4.9482,-10 -6.0309,-8 -6.0309,-8 -9.6778,-9.8146 -9.6777,-9.8147 -8.0736,-5.372 -8.0736,-5.372 -7.6305,-3.0553 -7.6304,-3.0554 -7.3534,-1.6056 -7.3534,-1.6056 -11,-0.024 -11,-0.024 -6.5,1.1689 -6.5,1.169 -8,2.5934 -8,2.5933 -5.5,2.7692 -5.5,2.7691 -7.5,5.2871 -7.5,5.287 -7.5923,7.5853 -7.5922,7.5852 -6.1557,8.3021 -6.1556,8.3021 -3.6149,6.464 -3.6149,6.464 -3.4862,8.2023 -3.4861,8.2022 -3.9011,15.2382 -3.901,15.2382 v 200.5118 200.5118 h -52 -52 v -193.894 -193.8941 l -1.0514,-10.2457 -1.0514,-10.2458 -1.8791,-9.1102 -1.879,-9.1102 -3.1647,-9.5 -3.1647,-9.5 -5.9472,-11.5568 -5.9473,-11.5569 -6.5468,-8.7231 -6.5469,-8.7232 -6.7121,-5.7769 -6.7121,-5.7769 -6.1182,-3.7167 -6.1183,-3.7166 -7.0309,-2.8993 -7.031,-2.8994 -8.2994,-2.0706 -8.2995,-2.0706 -10.5,-0.8978 -10.5,-0.8977 -10,1.4503 -10,1.4503 -6,1.4885 -6,1.4885 -8,2.58 -8,2.58 -9.5323,4.8533 -9.5322,4.8534 -6.7009,5.5272 -6.7009,5.5272 -4.0351,5.1048 -4.0352,5.1048 -3.2822,5.6371 -3.2823,5.6371 -4.089,9.5 -4.089,9.5 -2.0887,6.5 -2.0886,6.5 -2.4927,10.5 -2.4926,10.5 -1.5291,11.8012 -1.5292,11.8012 v 193.4488 193.4488 h -53 -53 l 0.01,-211.75 z"
     id="path130" /></g>
</g>
</svg>
